#!OML:ASF E:\basketball\basketball\Project 1\Capture day 1\Session 1\Subject.ASF
:FULLY-SPECIFIED
:DEGREES
17
root -35.3338 15.1758 14.7388 108.236 86.9013 103.964
lowerback 3.47972 2.87204 -3.42333
upperback 5.7437 4.00172 -1.01597
thorax 3.82875 1.95527 0.858235
lowerneck -5.29814 -18.1286 -30.8353
upperneck -19.1722 -21.2177 50.9122
head 8.22899 -10.7146 22.6889
rclavicle -2.41275e-014 3.57812e-015
rhumerus -41.5049 17.2 -103.303
rradius 106.288
rwrist -16.1614
rhand -33.8248 52.3382
rfingers 7.12502
rthumb -7.01043 22.4743
lclavicle -2.41275e-014 3.57812e-015
lhumerus -36.263 -28.0229 112.987
lradius 91.6859
lwrist 6.53761
lhand -53.0839 -0.400503
lfingers 7.12502
lthumb -25.5462 27.9066
rfemur -13.6103 0.413781 9.40906
rtibia 47.0987
rfoot -31.5808 -14.6399
rtoes -8.74868
lfemur -11.9987 13.02 -23.2829
ltibia 44.2114
lfoot -29.7027 1.92635
ltoes -4.33911
18
root -35.3018 15.1632 14.7145 104.909 87.51 100.565
lowerback 3.95794 2.83656 -3.11117
upperback 6.15259 3.96977 -0.972261
thorax 4.00695 1.955 0.717671
lowerneck -6.8979 -18.2862 -30.2506
upperneck -18.8581 -21.0894 51.0081
head 8.50656 -10.4468 22.5045
rclavicle -1.87852e-014 9.44227e-015
rhumerus -40.3007 17.191 -103.091
rradius 106.475
rwrist -15.7502
rhand -34.124 51.7478
rfingers 7.12502
rthumb -7.2993 21.8937
lclavicle -1.87852e-014 9.44227e-015
lhumerus -34.5673 -28.6846 111.818
lradius 90.4118
lwrist 2.00165
lhand -54.2152 5.30884
lfingers 7.12502
lthumb -26.6293 33.4561
rfemur -13.6011 0.575657 9.89296
rtibia 47.0947
rfoot -31.7302 -14.4623
rtoes -8.64561
lfemur -12.2581 13.7733 -22.6499
ltibia 44.8513
lfoot -29.9687 1.33545
ltoes -2.79935
19
root -35.2583 15.1508 14.6718 135.542 87.7536 130.892
lowerback 4.19953 2.43795 -2.23024
upperback 6.31731 3.44717 -0.78704
thorax 4.09561 1.72889 0.417693
lowerneck -7.7731 -18.2607 -30.2427
upperneck -18.5578 -20.9237 51.1654
head 8.76829 -10.2594 22.6981
rclavicle -2.09469e-014 2.00773e-014
rhumerus -39.4481 16.9125 -102.763
rradius 106.722
rwrist -15.1782
rhand -34.0809 51.9629
rfingers 7.12502
rthumb -7.25767 22.1074
lclavicle -2.09469e-014 2.00773e-014
lhumerus -33.339 -29.2122 111.049
lradius 89.0591
lwrist -2.60714
lhand -54.7095 11.5933
lfingers 7.12502
lthumb -27.1023 39.6678
rfemur -13.3748 0.0048533 10.7387
rtibia 47.031
rfoot -32.2201 -14.9683
rtoes -9.03479
lfemur -12.9754 13.22 -21.8706
ltibia 45.577
lfoot -29.5693 0.952805
ltoes 0.0148136
20
root -35.2155 15.1359 14.6273 152.482 87.2956 147.32
lowerback 4.21744 2.15853 -1.7924
upperback 6.37594 3.08337 -0.750017
thorax 4.17343 1.56581 0.216592
lowerneck -8.67742 -18.1896 -30.5294
upperneck -17.8543 -20.843 51.275
head 9.24088 -10.0982 22.9848
rclavicle 1.54058e-014 -1.55549e-014
rhumerus -38.7445 16.4712 -102.395
rradius 107.145
rwrist -14.5326
rhand -33.5337 52.1207
rfingers 7.12502
rthumb -6.72948 22.2477
lclavicle 1.54058e-014 -1.55549e-014
lhumerus -32.1317 -29.8534 110.301
lradius 87.835
lwrist -6.50204
lhand -54.5545 17.2373
lfingers 7.12502
lthumb -26.954 45.3348
rfemur -13.453 -0.701419 10.8773
rtibia 47.0086
rfoot -32.6664 -15.3478
rtoes -10.5981
lfemur -13.889 13.0116 -21.7326
ltibia 46.3376
lfoot -29.061 0.0884211
ltoes 2.92086
21
root -35.176 15.1232 14.5787 158.945 85.9589 153.095
lowerback 4.21553 1.6767 -1.96983
upperback 6.28544 2.4323 -0.701834
thorax 4.07995 1.23172 0.3678
lowerneck -9.63422 -18.0446 -31.1213
upperneck -16.7522 -20.7655 51.2062
head 9.85004 -9.92197 23.3251
rclavicle -3.97569e-016 6.36111e-015
rhumerus -38.3531 16.2793 -101.929
rradius 107.728
rwrist -13.901
rhand -33.3162 51.7863
rfingers 7.12502
rthumb -6.51951 21.9066
lclavicle -3.97569e-016 6.36111e-015
lhumerus -30.9837 -30.0987 109.678
lradius 86.751
lwrist -10.3274
lhand -53.8985 22.2935
lfingers 7.12502
lthumb -26.3262 50.4864
rfemur -13.5833 -2.24526 10.3242
rtibia 47.0514
rfoot -32.8622 -15.0019
rtoes -10.171
lfemur -15.0559 12.4961 -22.2728
ltibia 47.1591
lfoot -28.7902 -0.720545
ltoes 3.10965
22
root -35.1377 15.1119 14.5272 162.427 84.1629 155.997
lowerback 4.54419 1.04911 -2.23805
upperback 6.11574 1.57473 -0.655708
thorax 3.72663 0.794691 0.561825
lowerneck -10.4576 -17.9152 -31.6774
upperneck -15.6377 -20.745 51.116
head 10.4618 -9.80238 23.6557
rclavicle 1.83876e-015 1.49089e-014
rhumerus -38.0474 16.2294 -101.507
rradius 108.33
rwrist -13.0686
rhand -33.9454 51.9654
rfingers 7.12502
rthumb -7.12683 22.1054
lclavicle 1.83876e-015 1.49089e-014
lhumerus -30.0603 -30.1362 109.174
lradius 85.7243
lwrist -13.9318
lhand -53.066 26.5384
lfingers 7.12502
lthumb -25.529 54.848
rfemur -13.4661 -3.95874 9.69295
rtibia 47.2027
rfoot -33.1229 -14.7384
rtoes -9.17554
lfemur -16.1586 11.6925 -22.8904
ltibia 48.0799
lfoot -28.547 -1.40251
ltoes 1.9353
23
root -35.0906 15.0974 14.4694 165.48 82.4098 158.302
lowerback 4.4876 0.438753 -2.08588
upperback 6.06623 0.769118 -0.769468
thorax 3.72963 0.401946 0.370447
lowerneck -11.2837 -17.8998 -31.8222
upperneck -14.8926 -20.7687 51.127
head 10.9407 -9.71269 23.8374
rclavicle 2.9271e-014 -1.32192e-014
rhumerus -37.3477 16.1127 -101.237
rradius 108.871
rwrist -11.994
rhand -34.7548 52.8211
rfingers 7.12502
rthumb -7.90812 22.989
lclavicle 2.9271e-014 -1.32192e-014
lhumerus -28.9394 -30.3302 108.3
lradius 84.719
lwrist -17.4891
lhand -51.7863 30.1048
lfingers 7.12502
lthumb -24.3027 58.5842
rfemur -13.4873 -5.57572 9.22654
rtibia 47.4377
rfoot -33.6075 -14.887
rtoes -9.58775
lfemur -17.5001 11.092 -23.3753
ltibia 49.1906
lfoot -28.1577 -2.41142
ltoes 1.46743
24
root -35.0392 15.075 14.4089 168.623 80.4119 160.376
lowerback 4.00298 -0.364488 -1.99529
upperback 5.89568 -0.306792 -0.594322
thorax 3.84622 -0.141067 0.510864
lowerneck -11.8875 -17.7203 -32.5504
upperneck -14.0918 -20.5848 51.0335
head 11.3946 -9.57588 24.3637
rclavicle -8.79622e-015 -3.37934e-015
rhumerus -36.8141 16.66 -100.663
rradius 109.431
rwrist -11.1668
rhand -34.694 53.289
rfingers 7.12502
rthumb -7.84941 23.4548
lclavicle -8.79622e-015 -3.37934e-015
lhumerus -27.8746 -29.6419 107.698
lradius 83.739
lwrist -20.6476
lhand -50.6826 31.7731
lfingers 7.12502
lthumb -23.2441 60.3903
rfemur -13.7738 -7.60591 8.84141
rtibia 47.7884
rfoot -34.7066 -14.34
rtoes -8.17258
lfemur -19.3412 10.5069 -23.8563
ltibia 50.5401
lfoot -27.7238 -3.51807
ltoes 0.468773
25
root -34.9956 15.0463 14.3518 170.84 77.9258 161.655
lowerback 3.92911 -1.44919 -2.26248
upperback 5.51125 -1.79236 -0.052863
thorax 3.54997 -0.90803 1.22815
lowerneck -12.6104 -17.4017 -33.9883
upperneck -12.5119 -20.3353 50.5387
head 12.1027 -9.41358 25.0768
rclavicle -5.46658e-015 8.54774e-015
rhumerus -36.6495 18.0554 -99.7772
rradius 110.019
rwrist -10.5059
rhand -34.3373 53.1575
rfingers 7.12502
rthumb -7.50513 23.3107
lclavicle -5.46658e-015 8.54774e-015
lhumerus -27.3486 -28.1072 107.894
lradius 82.7094
lwrist -24.0405
lhand -49.9231 33.6021
lfingers 7.12502
lthumb -22.5152 62.3094
rfemur -13.7711 -9.98295 8.41273
rtibia 48.2226
rfoot -36.008 -13.7751
rtoes -7.01777
lfemur -21.1814 9.44584 -24.3887
ltibia 52.0713
lfoot -27.1556 -4.42427
ltoes -1.47936
26
root -34.9997 15.0205 14.3128 172.187 76.992 162.341
lowerback 4.74356 -1.7545 -2.03045
upperback 5.28786 -2.21844 0.0517446
thorax 2.87212 -1.10699 1.23869
lowerneck -13.4668 -17.401 -34.4545
upperneck -11.7557 -20.3387 50.5872
head 12.7425 -9.37563 25.6166
rclavicle 1.19271e-015 -1.51076e-014
rhumerus -35.7183 18.5513 -99.3291
rradius 110.478
rwrist -9.40216
rhand -34.5569 53.2159
rfingers 7.12502
rthumb -7.71712 23.3767
lclavicle 1.19271e-015 -1.51076e-014
lhumerus -26.4256 -27.7133 107.23
lradius 81.7785
lwrist -25.2415
lhand -50.2362 32.6095
lfingers 7.12502
lthumb -22.8158 61.2801
rfemur -14.2984 -11.1184 8.26624
rtibia 48.7008
rfoot -36.3263 -13.5683
rtoes -8.2479
lfemur -22.9217 9.66119 -24.6105
ltibia 53.6861
lfoot -26.2868 -5.40981
ltoes -2.63029
27
root -35.0036 14.9941 14.2732 173.26 76.006 162.882
lowerback 5.56089 -1.85317 -1.36043
upperback 5.43421 -2.31664 -0.321456
thorax 2.52682 -1.11637 0.508043
lowerneck -14.4834 -17.7477 -33.8792
upperneck -11.968 -20.6354 51.1833
head 13.2428 -9.43512 25.7992
rclavicle 1.42131e-014 -8.94531e-015
rhumerus -34.0018 18.0781 -99.1499
rradius 110.959
rwrist -7.90658
rhand -33.965 52.5454
rfingers 7.12502
rthumb -7.14582 22.686
lclavicle 1.42131e-014 -8.94531e-015
lhumerus -25.0053 -28.6876 105.688
lradius 80.885
lwrist -25.9141
lhand -51.2165 32.1835
lfingers 7.12502
lthumb -23.7563 60.735
rfemur -14.7008 -12.2001 8.04834
rtibia 49.167
rfoot -36.7211 -13.3096
rtoes -8.74757
lfemur -24.5147 9.75368 -24.8508
ltibia 55.3082
lfoot -25.2044 -6.6271
ltoes -1.85342
28
root -34.9667 14.9729 14.2116 172.561 75.9458 161.749
lowerback 5.97144 -1.73258 -1.10984
upperback 5.66075 -2.12856 -0.550377
thorax 2.51173 -1.00238 0.135818
lowerneck -15.3434 -17.9558 -33.8025
upperneck -11.9506 -20.777 51.5233
head 13.7135 -9.45092 26.1244
rclavicle -1.44119e-014 -1.88845e-014
rhumerus -32.4849 18.1647 -98.5596
rradius 111.562
rwrist -6.27734
rhand -33.5772 51.8718
rfingers 7.12502
rthumb -6.77145 22.0001
lclavicle -1.44119e-014 -1.88845e-014
lhumerus -22.0846 -24.9826 102.878
lradius 89.0323
lwrist 38.1587
lhand -18.9064 -14.0569
lfingers 7.12502
lthumb 7.39548 15.7938
rfemur -15.0722 -12.8775 7.39877
rtibia 49.6057
rfoot -37.0408 -12.9045
rtoes -9.73412
lfemur -25.6519 10.7691 -25.3672
ltibia 56.919
lfoot -24.5058 -7.75849
ltoes -0.551651
29
root -34.9119 14.9341 14.1217 170.48 76.2173 159.445
lowerback 6.34897 -1.71785 -1.09855
upperback 5.72315 -2.10551 -0.523764
thorax 2.36758 -0.987419 0.166379
lowerneck -15.713 -17.7628 -34.6
upperneck -11.1564 -20.5623 51.2915
head 14.1441 -9.39435 26.807
rclavicle 2.70347e-014 -1.59028e-015
rhumerus -31.6448 19.3038 -97.6951
rradius 112.148
rwrist -4.58499
rhand -33.1619 50.6262
rfingers 7.12502
rthumb -6.37053 20.742
lclavicle 2.70347e-014 -1.59028e-015
lhumerus -20.0232 -13.3016 98.4397
lradius 89.6974
lwrist 128.167
lhand 20.1073 37.3422
lfingers 7.12502
lthumb 44.6351 60.984
rfemur -15.2145 -13.6841 6.20212
rtibia 50.0346
rfoot -37.2814 -11.8424
rtoes -10.7578
lfemur -26.4399 11.8808 -26.1735
ltibia 58.6068
lfoot -24.0245 -8.75067
ltoes 1.45856
30
root -34.9054 14.9136 14.0665 173.118 75.005 160.835
lowerback 6.6176 -2.51687 -1.27005
upperback 4.86116 -3.23366 0.48971
thorax 1.40809 -1.58284 1.38265
lowerneck -15.2801 -16.8905 -36.3927
upperneck -9.89321 -19.4402 50.4862
head 14.0724 -9.05741 28.2476
rclavicle 9.42239e-014 -5.56597e-015
rhumerus -31.6794 21.905 -96.474
rradius 112.712
rwrist -2.97906
rhand -32.5046 48.6195
rfingers 7.12502
rthumb -5.7359 18.7171
lclavicle 9.42239e-014 -5.56597e-015
lhumerus -20.5767 -9.25746 98.6336
lradius 88.1732
lwrist 143.825
lhand 13.5445 49.9161
lfingers 7.12502
lthumb 38.4798 75.5831
rfemur -16.219 -15.3384 6.28631
rtibia 50.4566
rfoot -37.7585 -11.124
rtoes -10.0844
lfemur -28.9895 11.579 -26.4686
ltibia 60.4374
lfoot -22.7552 -9.75177
ltoes 2.80574
31
root -34.8934 14.8897 14.0173 176.274 74.2259 162.917
lowerback 6.609 -2.67757 -0.486656
upperback 4.84779 -3.40652 0.772362
thorax 1.37462 -1.65252 1.24509
lowerneck -15.9572 -17.0326 -36.583
upperneck -9.92315 -19.4223 50.6295
head 14.3817 -9.03372 28.6513
rclavicle 9.54166e-015 1.90833e-014
rhumerus -29.7748 22.4451 -95.4566
rradius 113.078
rwrist -1.16186
rhand -31.3669 46.6159
rfingers 7.12502
rthumb -4.63739 16.6867
lclavicle 9.54166e-015 1.90833e-014
lhumerus -19.992 -8.05081 97.9486
lradius 86.2488
lwrist 159.08
lhand 5.09469 59.4645
lfingers 7.12502
lthumb 30.4603 86.9674
rfemur -17.2198 -16.4259 6.83587
rtibia 50.759
rfoot -37.9962 -10.8951
rtoes -9.75586
lfemur -31.4256 11.7364 -26.3612
ltibia 62.3128
lfoot -21.5198 -10.5155
ltoes 2.57229
